<?xml version="1.0" encoding="utf-8"?>
<!-- Generator: Adobe Illustrator 15.1.0, SVG Export Plug-In  -->
<!DOCTYPE svg PUBLIC "-//W3C//DTD SVG 1.1//EN" "http://www.w3.org/Graphics/SVG/1.1/DTD/svg11.dtd" [
	<!ENTITY ns_flows "http://ns.adobe.com/Flows/1.0/">
]>
<svg version="1.1"
	 xmlns="http://www.w3.org/2000/svg" xmlns:xlink="http://www.w3.org/1999/xlink" xmlns:a="http://ns.adobe.com/AdobeSVGViewerExtensions/3.0/"
	 x="0px" y="0px" width="911px" height="331px" viewBox="-66.906 -50.682 911 331" enable-background="new -66.906 -50.682 911 331"
	 xml:space="preserve">
<defs>
</defs>

<g>
	<g>
		<path fill-rule="evenodd" clip-rule="evenodd" d="M116,0C54.219,0,4.137,50.08,4.137,111.861c0,21.132,5.865,40.896,16.051,57.757
			L0,229.632l61.932-19.83c16.025,8.863,34.455,13.914,54.068,13.914c61.777,0,111.859-50.078,111.859-111.855
			C227.859,50.08,177.777,0,116,0z M116,205.902c-19.104,0-36.891-5.73-51.742-15.553l-36.141,11.574l11.746-34.926
			c-11.258-15.504-17.91-34.555-17.91-55.138c0-51.857,42.189-94.045,94.047-94.045c51.855,0,94.045,42.188,94.045,94.045
			C210.045,163.714,167.855,205.902,116,205.902z"/>
	</g>
</g>
<path fill-rule="evenodd" clip-rule="evenodd" d="M89.764,65.592c-1.812-4.367-3.2-4.515-5.999-4.648
	c-0.96-0.046-2.001-0.09-3.14-0.09c-3.606,0-7.345,1.062-9.598,3.367c-2.742,2.805-9.598,9.375-9.598,22.865
	c0,13.492,9.826,26.529,11.195,28.359c1.373,1.828,19.164,29.919,46.844,41.388c21.605,8.949,28.02,8.152,32.949,7.074
	c7.172-1.566,16.178-6.848,18.463-13.248c2.285-6.404,2.285-11.893,1.6-13.033c-0.686-1.145-2.514-1.828-5.256-3.203
	c-2.742-1.371-16.225-8.004-18.738-8.917c-2.514-0.914-4.838-0.635-6.771,2.039c-2.668,3.693-5.234,7.488-7.359,9.738
	c-1.668,1.766-4.352,2.012-6.66,1.031c-3.035-1.293-11.578-4.27-22.053-13.609c-8.15-7.266-13.654-16.242-15.254-18.988
	c-1.6-2.742-0.141-4.379,1.092-5.871c1.406-1.703,2.703-2.926,4.074-4.525c1.371-1.602,2.137-2.455,3.051-4.287
	c0.914-1.828,0.299-3.715-0.387-5.088C97.531,84.572,92.042,71.084,89.764,65.592z"/>
</svg>
