<?xml version="1.0" encoding="iso-8859-1"?>
<!-- Generator: Adobe Illustrator 13.0.2, SVG Export Plug-In . SVG Version: 6.00 Build 14948)  -->
<!DOCTYPE svg PUBLIC "-//W3C//DTD SVG 1.1//EN" "http://www.w3.org/Graphics/SVG/1.1/DTD/svg11.dtd">
<svg version="1.1" id="Layer_1" xmlns="http://www.w3.org/2000/svg" xmlns:xlink="http://www.w3.org/1999/xlink" x="0px" y="0px"
	 width="123.547px" height="123.539px" viewBox="-0.258 -0.548 123.547 123.539"
	 style="enable-background:new -0.258 -0.548 123.547 123.539;" xml:space="preserve">
<g>
	<path style="fill:#FFFFFF;" d="M43.969,83.926h-20c-6.93,0-12.547-5.609-12.547-12.555l-0.023-21.922
		c0-9.414,7.617-17.039,17.016-17.039H86.32c9.398,0,17.039,7.625,17.039,17.039l0.023,30.961h8.859
		c1.906,0,3.469,1.586,3.469,3.492H70.75c-0.445-7.031-6.242-12.617-13.391-12.617C50.203,71.285,44.406,76.871,43.969,83.926z
		 M89.367,56.043c1.953,0,3.516-1.586,3.516-3.516v-5.836c0-1.93-1.562-3.516-3.516-3.516H77.172c-1.945,0-3.516,1.586-3.516,3.516
		v5.836c0,1.93,1.57,3.516,3.516,3.516H89.367z M54.453,56.066c1.938,0,3.516-1.586,3.516-3.516v-5.859
		c0-1.93-1.578-3.516-3.516-3.516H28c-1.945,0-3.516,1.586-3.516,3.516v5.859c0,1.93,1.57,3.516,3.516,3.516H54.453z"/>
	<path style="fill:#FFFFFF;" d="M47.688,84.785c0-5.352,4.32-9.68,9.672-9.68c5.344,0,9.664,4.328,9.664,9.68
		c0,5.32-4.32,9.664-9.664,9.664C52.008,94.449,47.688,90.105,47.688,84.785z M57.359,88.957c2.312,0,4.195-1.852,4.195-4.172
		s-1.883-4.203-4.195-4.203s-4.188,1.883-4.188,4.203S55.047,88.957,57.359,88.957z"/>
</g>
</svg>
